<?xml version="1.0" standalone="no"?>
<!DOCTYPE svg PUBLIC "-//W3C//DTD SVG 20010904//EN"
 "http://www.w3.org/TR/2001/REC-SVG-20010904/DTD/svg10.dtd">
<svg version="1.0" xmlns="http://www.w3.org/2000/svg"
 width="538.000000pt" height="538.000000pt" viewBox="0 0 538.000000 538.000000"
 preserveAspectRatio="xMidYMid meet">
<metadata>
Created by potrace 1.11, written by Peter Selinger 2001-2013
</metadata>
<g transform="translate(0.000000,538.000000) scale(0.100000,-0.100000)"
fill="#000000" stroke="none">
<path d="M766 5215 c-21 -7 -46 -21 -55 -30 -12 -13 -7 -12 26 4 27 13 61 21
95 21 69 0 114 -30 153 -101 27 -49 30 -64 33 -170 6 -183 -24 -272 -177 -516
-128 -204 -178 -339 -221 -593 -33 -200 -43 -357 -37 -604 11 -436 68 -665
263 -1056 91 -182 271 -469 349 -555 26 -29 31 -32 16 -10 -20 31 -36 159 -18
148 5 -3 -13 28 -40 68 -113 168 -195 324 -256 484 -28 74 -111 394 -104 401
4 4 16 -37 72 -241 28 -105 49 -160 105 -280 44 -97 176 -323 215 -370 14 -17
-4 17 -41 75 -113 181 -225 436 -172 393 8 -7 30 -44 47 -83 18 -38 37 -70 42
-70 13 0 12 10 -12 76 -23 68 -54 211 -64 301 -5 45 -2 83 11 138 20 87 35
100 96 92 29 -4 37 -2 29 7 -6 7 -6 17 -1 26 5 8 6 18 4 22 -3 4 0 8 5 8 6 0
11 -7 11 -15 0 -8 6 -12 14 -9 33 13 143 -67 201 -146 21 -28 40 -49 43 -46
16 17 -139 175 -199 201 -38 17 -39 20 -33 54 8 43 14 53 14 23 0 -12 4 -22 9
-22 5 0 11 -9 14 -19 6 -24 44 -48 82 -53 l29 -3 -1 95 0 95 6 -75 c5 -55 9
-70 16 -56 8 19 9 19 16 0 5 -14 8 -5 13 31 4 28 11 68 16 90 l9 40 -2 -40
c-2 -37 0 -40 22 -37 21 3 23 1 19 -27 -5 -37 -2 -38 23 -8 l20 22 -7 -25
c-12 -45 3 -17 35 65 28 70 84 183 65 130 -51 -144 -86 -259 -104 -348 -12
-60 -20 -111 -17 -113 2 -2 11 32 21 75 9 44 25 103 35 133 l18 53 -1 -42 c-1
-42 13 -70 21 -45 17 47 90 87 86 47 -1 -11 8 3 22 30 13 28 24 42 24 31 1
-13 6 -16 17 -12 9 4 23 1 30 -5 11 -9 15 -8 20 4 10 27 48 -15 39 -43 -5 -14
-3 -20 3 -16 6 3 12 1 14 -6 3 -7 22 13 43 45 21 31 40 57 43 57 2 0 -2 -10
-10 -22 -50 -78 -159 -303 -158 -326 1 -4 26 45 56 108 49 100 57 112 65 92 4
-12 6 -30 2 -40 -6 -16 -5 -16 12 0 18 16 20 16 42 -17 13 -19 20 -41 17 -52
-4 -13 0 -11 16 7 22 24 23 25 16 2 -6 -18 0 -29 28 -54 20 -18 36 -41 36 -53
0 -12 -16 -48 -36 -81 -20 -32 -41 -68 -47 -79 -9 -18 -9 -19 7 -6 9 8 19 11
22 8 3 -3 39 39 81 94 41 54 76 99 78 99 3 0 -31 -53 -75 -118 -95 -142 -223
-393 -207 -409 2 -2 12 18 22 44 24 64 99 213 120 238 9 11 14 15 11 10 -6
-14 -34 -135 -31 -135 2 0 17 24 33 53 16 28 42 63 57 77 l27 25 -26 -52 c-37
-73 -32 -78 10 -10 33 53 51 73 41 45 -2 -7 1 -24 8 -38 7 -14 16 -46 19 -71
7 -53 6 -55 -136 -299 -143 -246 -157 -266 -159 -222 0 9 -7 0 -16 -20 -8 -21
-19 -39 -24 -39 -31 -6 -33 -2 -32 46 1 41 0 37 -8 -20 -5 -38 -13 -110 -18
-160 -9 -84 -9 -78 -7 77 1 146 0 168 -14 165 -18 -2 -27 -28 -30 -82 -1 -32
-3 -36 -10 -20 -5 11 -9 16 -10 10 -1 -5 -6 -1 -11 10 -21 45 33 -238 57 -299
5 -13 4 -17 -4 -13 -13 9 -40 87 -63 187 -14 60 -18 68 -19 40 l-2 -35 -13 30
c-23 49 -17 14 11 -66 14 -41 25 -91 25 -112 0 -31 5 -40 25 -47 29 -11 32
-25 4 -17 -20 5 -21 -7 -5 -60 5 -16 -14 -81 -25 -88 -5 -3 -20 1 -34 10 -23
15 -25 15 -34 -2 -12 -21 -24 -13 -27 19 -1 13 -3 27 -4 32 0 5 -14 6 -31 3
-26 -6 -31 -3 -36 18 -3 13 -13 30 -22 37 -12 10 -11 6 3 -22 13 -24 18 -53
17 -93 -2 -53 0 -61 25 -84 l28 -26 -37 -109 c-20 -60 -30 -104 -23 -98 7 6
16 27 20 47 10 57 56 163 70 163 26 0 47 -37 41 -72 -5 -27 -4 -29 4 -11 l9
23 46 -31 c42 -28 47 -29 79 -18 48 18 70 0 108 -86 17 -38 37 -78 46 -88 14
-16 14 -31 -2 -162 -11 -92 -14 -151 -8 -162 5 -10 15 -49 22 -87 10 -55 21
-79 54 -120 23 -28 49 -62 59 -76 11 -15 17 -19 17 -10 0 9 -20 38 -43 65 -66
75 -82 133 -82 290 0 72 3 162 5 202 l5 72 32 -31 c18 -18 36 -40 39 -50 3
-11 28 -56 54 -102 43 -71 59 -89 120 -129 38 -26 70 -43 70 -38 0 5 -21 21
-47 37 -58 34 -86 63 -129 137 -38 65 -44 93 -16 82 77 -33 105 -39 194 -39
123 -1 145 14 55 38 -88 24 -158 58 -203 99 -37 33 -73 44 -157 47 -9 1 -15 5
-12 10 3 5 1 11 -5 15 -6 3 -25 30 -44 58 -43 67 -72 93 -124 111 -43 16 -59
12 -19 -4 15 -6 17 -9 6 -9 -23 -1 -69 37 -69 58 0 9 8 24 19 33 10 9 21 36
26 64 20 136 127 373 251 559 94 140 161 222 291 356 62 64 111 118 108 121
-3 3 23 68 58 144 114 249 157 405 157 570 0 87 3 103 20 122 12 12 31 22 43
22 13 0 28 5 34 11 7 7 24 8 42 4 30 -6 31 -8 31 -60 0 -30 5 -57 10 -60 6 -4
10 7 10 27 l0 33 15 -25 c8 -14 20 -35 26 -47 7 -13 15 -23 19 -23 4 0 11 -25
15 -56 l7 -56 19 40 c11 22 29 48 40 57 19 18 19 17 19 -56 -1 -41 -7 -110
-15 -154 -17 -95 -18 -98 -6 -91 9 6 34 134 50 261 4 39 9 58 10 44 0 -14 10
-35 22 -48 12 -13 18 -29 15 -39 -3 -9 7 -1 24 18 l31 35 -23 -40 c-16 -29
-18 -36 -6 -27 11 9 18 10 23 2 8 -13 -70 -94 -84 -86 -10 7 -22 -17 -26 -54
-3 -22 2 -18 38 24 23 27 62 70 86 95 l44 46 -40 -50 c-78 -100 -167 -231
-190 -281 -21 -46 -28 -53 -61 -59 -56 -10 -159 -54 -232 -98 -36 -22 -68 -41
-73 -44 -4 -2 -2 8 5 22 10 22 9 28 -3 35 -17 11 -30 -14 -22 -46 3 -16 -11
-33 -67 -79 -39 -32 -110 -99 -157 -149 -85 -91 -282 -344 -316 -408 -17 -32
-17 -32 0 -8 98 134 206 267 181 221 -11 -19 -11 -24 0 -28 10 -4 10 -11 -3
-31 -9 -15 33 23 92 83 59 61 131 131 158 155 47 41 46 40 -11 -20 -34 -36
-80 -89 -102 -117 -38 -50 -41 -57 -47 -140 -8 -115 -20 -175 -50 -246 -13
-33 -22 -57 -21 -55 1 1 59 64 128 139 125 134 126 136 92 132 -38 -4 -38 -5
-1 52 l19 30 -29 -30 c-15 -17 -41 -46 -56 -65 l-28 -35 27 45 c31 52 151 190
165 190 6 0 7 -6 3 -12 -5 -7 5 -3 20 10 28 22 86 31 86 13 0 -19 51 -22 78
-3 35 24 108 67 102 60 -3 -3 -41 -33 -85 -65 -129 -96 -415 -367 -564 -536
-52 -59 -6 -22 105 84 64 61 128 118 143 127 14 9 67 51 116 93 50 41 104 84
120 95 l30 19 -19 -29 -18 -29 58 33 c53 29 56 29 27 6 -28 -23 -30 -29 -20
-51 7 -14 21 -28 31 -31 18 -6 18 -7 -5 -21 -17 -10 -19 -13 -4 -8 54 17 161
45 170 44 5 0 -12 -9 -40 -19 l-50 -18 40 -2 c36 -1 38 -2 22 -14 -12 -9 -14
-16 -7 -21 20 -12 143 -7 248 10 183 30 119 9 -105 -34 -250 -48 -396 -81
-390 -88 3 -2 31 3 63 11 33 8 84 17 114 20 51 5 53 5 23 -7 -65 -25 -58 -34
29 -40 46 -4 106 -8 133 -8 45 -2 41 -3 -35 -14 -47 -7 -70 -13 -52 -14 19 0
46 -8 60 -16 17 -9 76 -17 157 -22 l130 -7 -180 -8 c-99 -4 -198 -12 -220 -17
-34 -9 -28 -10 40 -6 l80 3 -55 -10 c-30 -6 -58 -16 -61 -21 -4 -5 -11 -7 -16
-4 -6 4 -18 0 -28 -7 -16 -12 -14 -13 21 -11 21 2 67 -1 100 -7 49 -8 64 -14
74 -34 8 -13 23 -25 34 -25 20 -1 20 -1 1 -7 -13 -4 3 -10 45 -18 58 -10 61
-12 25 -13 -32 -1 -37 -4 -22 -12 23 -13 22 -29 -2 -29 -13 0 -18 -6 -17 -18
2 -13 25 -22 102 -39 127 -27 104 -28 -81 -3 -167 23 -243 25 -116 4 87 -15
112 -23 70 -25 -21 0 -19 -2 11 -14 25 -10 29 -14 15 -15 -15 -1 -16 -3 -5 -7
23 -9 64 -43 51 -43 -24 0 -9 -17 42 -46 28 -18 111 -51 184 -75 73 -24 131
-45 129 -47 -2 -2 -131 33 -286 77 -155 45 -285 81 -289 80 -3 0 37 -16 89
-35 52 -19 79 -32 60 -29 -54 7 -67 -8 -26 -30 19 -10 32 -23 29 -29 -4 -5 1
-7 11 -3 9 4 15 3 12 -1 -3 -5 20 -19 50 -32 71 -29 64 -36 -11 -10 -70 24
-76 25 -47 4 12 -8 22 -22 22 -29 0 -9 43 -36 100 -65 55 -28 100 -52 100 -54
0 -2 -48 17 -107 43 -113 50 -331 126 -339 119 -2 -3 15 -11 38 -18 65 -19
150 -52 146 -56 -2 -2 -27 3 -55 10 -67 18 -91 4 -35 -21 29 -12 47 -29 59
-53 9 -19 16 -38 15 -42 -1 -4 6 -4 15 -1 10 4 14 2 10 -5 -4 -6 14 -24 43
-43 60 -39 64 -47 10 -19 -33 17 -38 18 -33 4 5 -13 2 -15 -15 -9 -14 4 -22 2
-22 -5 0 -7 -7 -9 -17 -5 -27 10 -9 -4 107 -85 103 -72 154 -112 95 -75 -95
59 -339 206 -390 235 -84 46 -57 24 53 -44 92 -58 121 -81 60 -50 -17 9 -46
20 -62 25 l-31 8 30 -24 c17 -14 30 -34 30 -44 0 -11 16 -37 35 -57 l35 -38
-39 28 c-33 25 -37 26 -27 7 12 -22 3 -29 -16 -10 -7 7 -12 6 -16 -5 -4 -10
25 -45 91 -108 53 -51 88 -85 77 -77 -125 99 -216 175 -295 246 l-95 86 105
-107 c84 -86 96 -102 60 -78 -25 16 -62 32 -83 35 -21 3 -47 13 -58 23 -10 9
-19 14 -19 11 0 -3 54 -54 120 -113 66 -59 118 -109 115 -112 -6 -7 15 -32 27
-32 5 0 6 5 2 12 -4 7 -3 8 5 4 6 -4 9 -11 6 -16 -12 -19 223 -160 268 -160
10 0 29 7 42 16 14 9 32 14 40 10 9 -3 13 -2 10 4 -4 6 11 10 38 10 32 0 63
-10 113 -37 61 -33 77 -37 140 -38 61 0 76 4 113 28 48 32 59 51 40 73 -55 66
-6 190 104 259 15 9 27 23 27 30 0 7 12 20 26 30 22 14 25 22 20 49 -11 59 57
142 149 180 37 16 42 16 90 -3 113 -44 143 -35 230 62 31 36 63 68 70 71 7 2
46 -5 86 -16 107 -29 215 -28 271 4 24 13 65 30 92 38 33 9 64 28 100 63 35
34 38 38 9 14 -47 -40 -94 -67 -117 -67 -11 0 -4 17 24 57 22 31 40 61 40 67
0 6 -16 -14 -36 -44 -72 -111 -118 -139 -222 -140 -65 0 -192 26 -192 40 0 5
13 11 29 15 17 3 47 20 67 36 20 16 40 29 43 29 3 0 37 -16 75 -35 37 -19 80
-35 95 -34 25 1 25 1 -4 8 -46 12 -106 45 -160 90 -92 76 -142 94 -281 101
-113 5 -125 8 -149 30 -45 42 -57 76 -58 164 -1 101 13 144 69 207 49 55 49
56 33 127 -11 46 -10 52 17 103 16 30 68 94 116 142 49 49 85 87 81 85 -58
-30 -98 -42 -149 -46 -57 -4 -63 -2 -97 27 -53 47 -77 104 -77 184 0 79 -9 90
-96 122 -66 23 -90 50 -108 121 l-12 49 -68 3 c-67 3 -200 -23 -275 -54 -19
-8 -35 -13 -37 -11 -2 2 41 56 96 121 216 259 316 422 327 537 5 59 3 70 -17
98 -13 17 -26 50 -29 73 -5 37 -12 45 -51 68 -35 20 -48 36 -60 70 -14 39 -21
46 -64 62 -55 19 -66 31 -66 69 0 28 -32 63 -67 73 -16 5 -26 20 -33 48 -6 22
-22 50 -34 62 -13 11 -26 33 -29 47 -4 15 -23 38 -42 53 -23 18 -35 35 -35 51
0 63 -48 118 -121 136 -27 7 -45 17 -42 22 3 5 -3 7 -13 4 -11 -4 -56 -15
-102 -27 -107 -27 -173 -56 -280 -126 -169 -110 -338 -270 -455 -431 -28 -39
-59 -72 -68 -72 -26 -1 -65 36 -82 76 -25 62 -52 80 -129 85 -80 5 -100 20
-124 92 -21 65 -44 90 -97 105 -61 18 -127 59 -127 79 0 9 -11 40 -24 68 -25
53 -63 88 -109 99 -21 6 -29 16 -37 46 -15 55 -62 105 -118 125 -60 21 -86 49
-107 116 -49 151 -154 242 -296 255 -43 4 -64 1 -95 -15 l-39 -20 55 111 c31
62 61 136 68 165 17 77 16 268 -3 323 -21 60 -69 117 -119 140 -49 22 -77 23
-130 4z m421 -2137 c-3 -7 -5 -2 -5 12 0 14 2 19 5 13 2 -7 2 -19 0 -25z m-20
-137 c-8 -61 -17 -114 -22 -118 -8 -8 -4 29 17 165 17 111 20 79 5 -47z m-71
-67 c-3 -8 -15 -14 -26 -14 -17 0 -20 6 -20 48 0 58 9 71 27 40 12 -22 12 -22
14 12 2 23 4 17 6 -19 2 -29 2 -60 -1 -67z m-133 -126 c-23 -24 -51 -64 -63
-90 -12 -27 -23 -48 -25 -48 -5 0 10 41 26 73 12 22 89 107 98 107 3 0 -14
-19 -36 -42z m2033 -43 c-2 -13 -9 -32 -17 -41 -8 -10 -28 -45 -44 -78 -23
-45 -37 -62 -54 -64 -23 -4 -23 -3 8 55 31 56 97 153 105 153 2 0 3 -11 2 -25z
m138 -23 c2 -4 -27 -45 -65 -91 -38 -46 -69 -85 -69 -88 0 -3 28 20 61 51 34
32 64 54 67 51 3 -3 22 9 41 27 l35 33 -37 -45 c-20 -25 -68 -86 -107 -137
l-70 -91 -40 39 -40 40 22 32 c38 54 121 146 128 142 4 -3 18 7 30 20 24 26
36 30 44 17z m-90 -262 c-15 -22 -29 -38 -31 -36 -5 5 46 76 53 76 3 0 -8 -18
-22 -40z m162 -42 c5 4 3 0 -3 -9 -12 -15 -103 -27 -103 -13 0 5 12 20 27 36
l26 27 23 -24 c12 -13 26 -21 30 -17z m-116 8 c0 -2 -8 -10 -17 -17 -16 -13
-17 -12 -4 4 13 16 21 21 21 13z m383 -190 c15 -4 25 -10 22 -15 -11 -18 30
-21 83 -6 30 9 56 14 59 12 2 -3 -9 -8 -24 -11 -15 -4 -73 -27 -128 -51 -55
-24 -106 -45 -113 -47 -15 -3 -54 60 -46 74 8 13 97 56 109 53 5 -2 23 -6 38
-9z m-1023 0 c0 -2 -8 -10 -17 -17 -16 -13 -17 -12 -4 4 13 16 21 21 21 13z
m1040 -96 c-14 -11 -19 -20 -11 -20 7 0 11 -6 8 -15 -5 -11 1 -13 26 -9 28 4
29 3 9 -6 -13 -5 -21 -14 -18 -19 3 -5 -4 -11 -16 -15 -28 -7 -70 3 -63 15 3
5 -6 11 -20 15 -14 3 -25 10 -25 14 0 8 107 58 125 59 6 0 -1 -8 -15 -19z
m-899 -179 c-32 -41 -131 -128 -131 -116 0 3 -15 -4 -32 -16 l-33 -22 30 32
c28 30 184 161 193 161 2 0 -10 -18 -27 -39z m1304 -51 c58 -9 57 -9 -19 -5
-43 3 -114 5 -158 5 -51 0 -78 4 -78 11 0 12 135 6 255 -11z m-185 -92 c19 -6
15 -7 -15 -3 -22 3 -50 5 -62 5 -13 0 -23 5 -23 10 0 11 51 5 100 -12z m-513
-14 c-3 -3 -12 -4 -19 -1 -8 3 -5 6 6 6 11 1 17 -2 13 -5z m443 -4 c13 -9 13
-10 0 -11 -8 0 30 -16 85 -35 55 -18 89 -31 75 -29 -85 18 -205 47 -208 50 -4
4 20 34 28 34 3 1 12 -4 20 -9z m75 -204 c18 -13 18 -14 -8 -9 -15 3 -30 9
-33 14 -8 14 20 10 41 -5z m3 -93 c34 -14 61 -28 58 -30 -5 -5 -118 37 -130
48 -18 16 7 10 72 -18z m-63 -33 c3 -6 -1 -7 -9 -4 -18 7 -21 14 -7 14 6 0 13
-4 16 -10z m1 -31 c14 -16 15 -22 5 -28 -19 -12 69 -86 177 -150 51 -30 92
-56 92 -58 0 -11 -326 172 -336 189 -3 5 -1 15 5 21 6 6 11 19 11 29 0 24 23
23 46 -3z m-2150 -180 c10 -17 -13 -36 -27 -22 -12 12 -4 33 11 33 5 0 12 -5
16 -11z m2184 -45 c0 -3 -13 4 -30 16 -16 12 -30 24 -30 26 0 3 14 -4 30 -16
17 -12 30 -24 30 -26z m515 -134 c25 -11 -1 -11 -35 0 -20 6 -21 8 -5 8 11 0
29 -3 40 -8z m-2235 -184 c0 -2 -7 -6 -15 -10 -8 -3 -15 -1 -15 4 0 6 7 10 15
10 8 0 15 -2 15 -4z"/>
<path d="M644 5128 l-29 -33 33 29 c30 28 37 36 29 36 -2 0 -16 -15 -33 -32z"/>
<path d="M3331 4130 c0 -15 -4 -30 -8 -36 -5 -5 -2 -4 5 2 8 6 12 22 9 35 -4
24 -4 24 -6 -1z"/>
<path d="M2731 2984 c0 -11 3 -14 6 -6 3 7 2 16 -1 19 -3 4 -6 -2 -5 -13z"/>
<path d="M1427 2566 c-5 -15 -6 -31 -3 -34 8 -8 18 25 14 45 -3 13 -6 10 -11
-11z"/>
<path d="M1681 2489 c-12 -35 -21 -68 -20 -73 0 -6 11 20 25 58 13 38 22 71
20 73 -2 2 -13 -24 -25 -58z"/>
<path d="M1431 2519 c-1 -3 17 -44 38 -90 22 -46 40 -79 40 -74 0 11 -77 173
-78 164z"/>
<path d="M2420 2387 c0 -12 -9 -39 -20 -60 l-21 -39 25 19 c20 14 25 27 26 61
0 23 -2 42 -5 42 -3 0 -5 -10 -5 -23z"/>
<path d="M1651 2384 c0 -11 3 -14 6 -6 3 7 2 16 -1 19 -3 4 -6 -2 -5 -13z"/>
<path d="M1641 2344 c0 -11 3 -14 6 -6 3 7 2 16 -1 19 -3 4 -6 -2 -5 -13z"/>
<path d="M1631 2304 c0 -11 3 -14 6 -6 3 7 2 16 -1 19 -3 4 -6 -2 -5 -13z"/>
<path d="M1521 2305 c1 -19 18 -51 18 -35 0 8 -4 22 -9 30 -5 8 -9 11 -9 5z"/>
<path d="M1622 2260 c0 -14 2 -19 5 -12 2 6 2 18 0 25 -3 6 -5 1 -5 -13z"/>
<path d="M1612 2200 c0 -14 2 -19 5 -12 2 6 2 18 0 25 -3 6 -5 1 -5 -13z"/>
<path d="M1603 2105 c0 -33 2 -45 4 -27 2 18 2 45 0 60 -2 15 -4 0 -4 -33z"/>
<path d="M1603 2005 c0 -22 2 -30 4 -17 2 12 2 30 0 40 -3 9 -5 -1 -4 -23z"/>
<path d="M1796 1994 c-4 -14 -5 -28 -3 -31 3 -2 8 8 11 23 4 14 5 28 3 31 -3
2 -8 -8 -11 -23z"/>
<path d="M1310 1955 c0 -3 24 -44 54 -90 l54 -85 -6 47 c-4 39 -13 56 -47 91
-39 39 -55 50 -55 37z"/>
<path d="M1781 1934 c0 -11 3 -14 6 -6 3 7 2 16 -1 19 -3 4 -6 -2 -5 -13z"/>
<path d="M2147 1886 c-19 -20 -49 -58 -67 -84 l-33 -47 42 45 42 45 -22 -45
c-22 -47 -18 -46 21 5 l23 30 -6 -61 c-4 -47 -16 -84 -53 -155 -26 -52 -55
-105 -65 -119 -9 -14 -16 -38 -16 -53 l2 -27 17 22 c35 46 81 129 105 188 22
57 60 277 48 288 -2 3 -20 -12 -38 -32z"/>
<path d="M1612 1880 c0 -19 2 -27 5 -17 2 9 2 25 0 35 -3 9 -5 1 -5 -18z"/>
<path d="M1771 1894 c0 -11 3 -14 6 -6 3 7 2 16 -1 19 -3 4 -6 -2 -5 -13z"/>
<path d="M1346 1823 c41 -71 80 -127 100 -144 16 -13 16 -12 4 11 -17 33 -120
180 -126 180 -3 0 7 -21 22 -47z"/>
<path d="M1761 1854 c0 -11 3 -14 6 -6 3 7 2 16 -1 19 -3 4 -6 -2 -5 -13z"/>
<path d="M885 1851 c-12 -21 14 -38 69 -45 30 -3 63 -9 73 -12 15 -6 15 -4 -4
16 -16 17 -34 23 -68 24 -27 1 -49 7 -54 15 -6 9 -10 10 -16 2z"/>
<path d="M1751 1804 c0 -11 3 -14 6 -6 3 7 2 16 -1 19 -3 4 -6 -2 -5 -13z"/>
<path d="M720 1679 c-13 -6 -37 -9 -53 -7 -16 2 -27 -1 -26 -7 4 -11 40 -11
130 0 153 19 336 -74 549 -279 82 -80 100 -94 63 -51 -114 135 -258 252 -368
300 -108 48 -236 67 -295 44z"/>
<path d="M2218 1549 l-73 -71 73 62 c40 34 75 66 78 71 13 22 -10 4 -78 -62z"/>
<path d="M1230 1566 c0 -2 8 -10 18 -17 15 -13 16 -12 3 4 -13 16 -21 21 -21
13z"/>
<path d="M2683 1483 c9 -2 23 -2 30 0 6 3 -1 5 -18 5 -16 0 -22 -2 -12 -5z"/>
<path d="M2628 1473 c6 -2 18 -2 25 0 6 3 1 5 -13 5 -14 0 -19 -2 -12 -5z"/>
<path d="M2588 1463 c7 -3 16 -2 19 1 4 3 -2 6 -13 5 -11 0 -14 -3 -6 -6z"/>
<path d="M2548 1453 c7 -3 16 -2 19 1 4 3 -2 6 -13 5 -11 0 -14 -3 -6 -6z"/>
<path d="M2508 1443 c7 -3 16 -2 19 1 4 3 -2 6 -13 5 -11 0 -14 -3 -6 -6z"/>
<path d="M2170 1314 l-35 -26 45 7 c25 4 54 12 65 17 15 6 13 7 -10 3 l-30 -5
25 15 25 14 -25 0 c-14 0 -41 -11 -60 -25z"/>
<path d="M2553 1283 c9 -2 23 -2 30 0 6 3 -1 5 -18 5 -16 0 -22 -2 -12 -5z"/>
<path d="M2673 1273 c9 -2 25 -2 35 0 9 3 1 5 -18 5 -19 0 -27 -2 -17 -5z"/>
<path d="M2753 1263 c9 -2 25 -2 35 0 9 3 1 5 -18 5 -19 0 -27 -2 -17 -5z"/>
<path d="M2738 1143 c7 -3 16 -2 19 1 4 3 -2 6 -13 5 -11 0 -14 -3 -6 -6z"/>
<path d="M2778 1133 c7 -3 16 -2 19 1 4 3 -2 6 -13 5 -11 0 -14 -3 -6 -6z"/>
<path d="M2210 1063 c-20 -4 -14 -9 35 -24 72 -22 78 -23 45 -3 l-25 15 25 -6
c24 -6 24 -5 6 9 -20 16 -38 18 -86 9z"/>
<path d="M2508 1033 c7 -3 16 -2 19 1 4 3 -2 6 -13 5 -11 0 -14 -3 -6 -6z"/>
<path d="M2558 1023 c7 -3 16 -2 19 1 4 3 -2 6 -13 5 -11 0 -14 -3 -6 -6z"/>
<path d="M2598 1013 c7 -3 16 -2 19 1 4 3 -2 6 -13 5 -11 0 -14 -3 -6 -6z"/>
<path d="M2648 1003 c7 -3 16 -2 19 1 4 3 -2 6 -13 5 -11 0 -14 -3 -6 -6z"/>
<path d="M2688 993 c7 -3 16 -2 19 1 4 3 -2 6 -13 5 -11 0 -14 -3 -6 -6z"/>
<path d="M1413 858 c-15 -20 -25 -38 -20 -38 3 0 12 11 21 25 17 26 16 35 -1
13z"/>
<path d="M2600 856 c0 -3 9 -10 20 -16 11 -6 20 -8 20 -6 0 3 -9 10 -20 16
-11 6 -20 8 -20 6z"/>
<path d="M1377 803 c-4 -3 -7 -11 -7 -17 0 -6 5 -5 12 2 6 6 9 14 7 17 -3 3
-9 2 -12 -2z"/>
<path d="M2486 755 c-11 -8 -15 -15 -9 -15 6 0 16 7 23 15 16 19 11 19 -14 0z"/>
<path d="M2370 726 c0 -2 8 -10 18 -17 15 -13 16 -12 3 4 -13 16 -21 21 -21
13z"/>
<path d="M2460 656 c0 -2 8 -10 18 -17 15 -13 16 -12 3 4 -13 16 -21 21 -21
13z"/>
<path d="M2525 600 c10 -11 20 -20 23 -20 3 0 -3 9 -13 20 -10 11 -20 20 -23
20 -3 0 3 -9 13 -20z"/>
<path d="M2560 576 c0 -6 199 -169 220 -181 13 -7 13 -6 0 7 -26 26 -220 179
-220 174z"/>
</g>
</svg>
